<svg width="16" height="16" viewBox="0 0 16 16" fill="none" xmlns="http://www.w3.org/2000/svg">
<path d="M9.90625 4.59844H13.0234V5.35469H9.90625V4.59844ZM6.78281 7.59063C7.47188 7.26094 7.83281 6.75938 7.83281 5.98438C7.83281 4.45156 6.69219 4.07969 5.375 4.07969H1.75V11.7734H5.47656C6.87344 11.7734 8.18437 11.1016 8.18437 9.53906C8.18437 8.57344 7.72813 7.85938 6.78281 7.59063ZM3.44062 5.39219H5.02656C5.6375 5.39219 6.18594 5.5625 6.18594 6.27188C6.18594 6.925 5.75938 7.1875 5.15469 7.1875H3.44062V5.39219ZM5.24531 10.4672H3.43906V8.34844H5.28125C6.025 8.34844 6.49531 8.65938 6.49531 9.44688C6.49531 10.2219 5.93438 10.4672 5.24531 10.4672ZM14.2422 9.06875C14.2422 7.42031 13.2781 6.04688 11.5344 6.04688C9.83906 6.04688 8.68594 7.32344 8.68594 8.99688C8.68594 10.7313 9.77812 11.9219 11.5344 11.9219C12.8641 11.9219 13.725 11.3234 14.1391 10.0469H12.7906C12.6437 10.5234 12.0469 10.7734 11.5828 10.7734C10.6859 10.7734 10.2172 10.2484 10.2172 9.35625H14.2312C14.2359 9.26406 14.2422 9.16719 14.2422 9.06875ZM10.2172 8.39063C10.2656 7.65781 10.7547 7.2 11.4859 7.2C12.2547 7.2 12.6391 7.65156 12.7063 8.39063H10.2172Z" fill="white"/>
</svg>
