<svg width="16" height="16" viewBox="0 0 16 16" fill="none" xmlns="http://www.w3.org/2000/svg">
<path d="M7.99991 0.380951C3.79191 0.380951 0.380859 3.792 0.380859 8C0.380859 12.208 3.79191 15.619 7.99991 15.619C12.2079 15.619 15.619 12.208 15.619 8C15.619 3.792 12.2079 0.380951 7.99991 0.380951ZM7.99991 1.48495C9.65972 1.48495 11.1748 2.1059 12.3252 3.12762C11.4799 4.24267 10.1957 4.98514 8.90886 5.48762C8.18038 4.16089 7.36395 2.88439 6.46505 1.66667C6.96779 1.54548 7.48315 1.48448 8.00029 1.48495H7.99991ZM5.2281 2.10209C6.07762 3.37295 6.90048 4.55124 7.6521 5.88495C5.75114 6.37752 3.60295 6.67314 1.61857 6.67809C2.03686 4.64838 3.40029 2.96305 5.2281 2.10247V2.10209ZM13.0479 3.88114C13.9893 5.0316 14.5072 6.47041 14.515 7.95695C13.0079 7.65981 11.5092 7.58209 9.98314 7.736C9.81172 7.30819 9.60372 6.90171 9.40448 6.46362C10.7199 5.93295 12.1264 5.02476 13.0479 3.88076V3.88114ZM8.18124 6.89295C8.34429 7.23962 8.53324 7.60762 8.71076 7.98362C6.58886 8.91924 4.33172 10.1695 3.16029 12.3615C2.03572 11.1171 1.4364 9.48566 1.48791 7.80914C3.76029 7.79847 5.99076 7.51428 8.18124 6.89295ZM11.6243 8.66933C12.5724 8.66953 13.5166 8.79116 14.4338 9.03124C14.2924 9.91361 13.9709 10.7575 13.4894 11.5103C13.0079 12.2631 12.3767 12.9088 11.635 13.4072C11.2852 11.8168 10.9519 10.2949 10.3626 8.76038C10.7803 8.69952 11.2018 8.66896 11.6239 8.66895L11.6243 8.66933ZM14.4677 8.78743C14.4631 8.82476 14.459 8.86133 14.4536 8.8979C14.459 8.86095 14.4635 8.82438 14.4677 8.78743ZM9.15724 9.0579C9.75762 10.6095 10.2289 12.3276 10.545 13.9996C9.74017 14.3411 8.87462 14.5166 8.00029 14.5154C6.55185 14.5175 5.14439 14.0347 4.00219 13.144C5.182 11.2301 7.00943 9.78171 9.15686 9.05828L9.15724 9.0579Z" fill="#FCFEFF"/>
</svg>
