<svg width="16" height="16" viewBox="0 0 16 16" fill="none" xmlns="http://www.w3.org/2000/svg">
<path d="M8 0.380952C3.792 0.380952 0.380951 3.792 0.380951 8C0.380951 12.208 3.792 15.619 8 15.619C12.208 15.619 15.619 12.208 15.619 8C15.619 3.792 12.208 0.380952 8 0.380952ZM8 1.48495C9.65981 1.48495 11.1749 2.1059 12.3253 3.12762C11.48 4.24267 10.1958 4.98514 8.90895 5.48762C8.18047 4.16089 7.36405 2.88439 6.46514 1.66667C6.96788 1.54549 7.48324 1.48449 8.00038 1.48495H8ZM5.22819 2.1021C6.07771 3.37295 6.90057 4.55124 7.65219 5.88495C5.75124 6.37752 3.60305 6.67314 1.61867 6.67809C2.03695 4.64838 3.40038 2.96305 5.22819 2.10248V2.1021ZM13.048 3.88114C13.9894 5.0316 14.5073 6.47042 14.515 7.95695C13.008 7.65981 11.5093 7.58209 9.98324 7.736C9.81181 7.30819 9.60381 6.90171 9.40457 6.46362C10.72 5.93295 12.1265 5.02476 13.048 3.88076V3.88114ZM8.18133 6.89295C8.34438 7.23962 8.53333 7.60762 8.71085 7.98362C6.58895 8.91924 4.33181 10.1695 3.16038 12.3615C2.03581 11.1171 1.43649 9.48566 1.488 7.80914C3.76038 7.79848 5.99086 7.51429 8.18133 6.89295ZM11.6244 8.66933C12.5725 8.66954 13.5167 8.79116 14.4339 9.03124C14.2925 9.91361 13.971 10.7575 13.4895 11.5103C13.008 12.2631 12.3768 12.9088 11.635 13.4072C11.2853 11.8168 10.952 10.2949 10.3627 8.76038C10.7804 8.69952 11.2019 8.66896 11.624 8.66895L11.6244 8.66933ZM14.4678 8.78743C14.4632 8.82476 14.459 8.86133 14.4537 8.8979C14.459 8.86095 14.4636 8.82438 14.4678 8.78743ZM9.15733 9.0579C9.75771 10.6095 10.229 12.3276 10.5451 13.9996C9.74026 14.3411 8.87471 14.5166 8.00038 14.5154C6.55194 14.5175 5.14448 14.0347 4.00228 13.144C5.18209 11.2301 7.00952 9.78171 9.15695 9.05829L9.15733 9.0579Z" fill="#83BBE6"/>
</svg>
