<svg width="14" height="14" viewBox="0 0 14 14" fill="none" xmlns="http://www.w3.org/2000/svg">
<path d="M11.6667 2.33331H2.33334C1.69167 2.33331 1.17251 2.85831 1.17251 3.49998L1.16667 10.5C1.16667 11.1416 1.69167 11.6666 2.33334 11.6666H11.6667C12.3083 11.6666 12.8333 11.1416 12.8333 10.5V3.49998C12.8333 2.85831 12.3083 2.33331 11.6667 2.33331ZM11.4333 4.81248L7.30917 7.39081C7.12251 7.50748 6.87751 7.50748 6.69084 7.39081L2.56667 4.81248C2.50818 4.77964 2.45696 4.73528 2.41611 4.68208C2.37526 4.62887 2.34562 4.56793 2.32901 4.50295C2.31239 4.43796 2.30913 4.37027 2.31943 4.30399C2.32973 4.23771 2.35337 4.1742 2.38892 4.11732C2.42447 4.06044 2.47119 4.01136 2.52626 3.97306C2.58133 3.93476 2.6436 3.90803 2.70929 3.89449C2.77499 3.88095 2.84275 3.88088 2.90848 3.89428C2.9742 3.90769 3.03653 3.93429 3.09167 3.97248L7.00001 6.41665L10.9083 3.97248C10.9635 3.93429 11.0258 3.90769 11.0915 3.89428C11.1573 3.88088 11.225 3.88095 11.2907 3.89449C11.3564 3.90803 11.4187 3.93476 11.4737 3.97306C11.5288 4.01136 11.5755 4.06044 11.6111 4.11732C11.6466 4.1742 11.6703 4.23771 11.6806 4.30399C11.6909 4.37027 11.6876 4.43796 11.671 4.50295C11.6544 4.56793 11.6248 4.62887 11.5839 4.68208C11.5431 4.73528 11.4918 4.77964 11.4333 4.81248Z" fill="#83BBE6" fill-opacity="0.7"/>
</svg>
