<svg width="16" height="16" viewBox="0 0 16 16" fill="none" xmlns="http://www.w3.org/2000/svg">
<g clip-path="url(#clip0)">
<path d="M1 10.8125C0.91712 10.8125 0.837634 10.7796 0.779029 10.721C0.720424 10.6624 0.6875 10.5829 0.6875 10.5V1.5C0.6875 1.41712 0.720424 1.33763 0.779029 1.27903C0.837634 1.22042 0.91712 1.1875 1 1.1875H15C15.0829 1.1875 15.1624 1.22042 15.221 1.27903C15.2796 1.33763 15.3125 1.41712 15.3125 1.5V10.5C15.3125 10.5829 15.2796 10.6624 15.221 10.721C15.1624 10.7796 15.0829 10.8125 15 10.8125H1Z" fill="url(#paint0_linear)"/>
<path d="M15 1.375C15.0688 1.375 15.125 1.43125 15.125 1.5V10.5C15.125 10.5688 15.0688 10.625 15 10.625H1C0.93125 10.625 0.875 10.5688 0.875 10.5V1.5C0.875 1.43125 0.93125 1.375 1 1.375H15ZM15 1H1C0.72375 1 0.5 1.22375 0.5 1.5V10.5C0.5 10.7763 0.72375 11 1 11H15C15.2763 11 15.5 10.7763 15.5 10.5V1.5C15.5 1.22375 15.2763 1 15 1Z" fill="black"/>
<path d="M1.5 2H4.5V2.5H1.5V2Z" fill="#76FF03"/>
<path d="M10.75 2H12.75V2.5H10.75V2Z" fill="#76FF03"/>
<path d="M13.5 2H14.5V2.5H13.5V2Z" fill="#76FF03"/>
<path d="M2.5 3.5H3.5V4H2.5V3.5Z" fill="#76FF03"/>
<path d="M1.5 5H3.5V5.5H1.5V5Z" fill="#76FF03"/>
<path d="M1.5 6.5H2.5V7H1.5V6.5Z" fill="#76FF03"/>
<path d="M12.25 6.5H13.75V7H12.25V6.5Z" fill="#76FF03"/>
<path d="M13 5H14.5V5.5H13V5Z" fill="#76FF03"/>
<path d="M1.5 8H3.5V8.5H1.5V8Z" fill="#76FF03"/>
<path d="M12 8H14.5V8.5H12V8Z" fill="#76FF03"/>
<path d="M12.5 3.5H14V4H12.5V3.5Z" fill="#76FF03"/>
<path d="M4.58375 9.03249C3.91374 9.03249 3.37 8.44874 3.37 7.73124C3.37 7.01374 3.915 6.42999 4.58375 6.42999H11.415C12.085 6.42999 12.6287 7.01374 12.6287 7.73124C12.6287 8.44874 12.0837 9.03249 11.415 9.03249H4.58375Z" fill="#3C2B24"/>
<path d="M11.4162 6.55371C12.0162 6.55371 12.505 7.08121 12.505 7.72996C12.505 8.37871 12.0162 8.90621 11.4162 8.90621H4.58375C3.98374 8.90621 3.495 8.37871 3.495 7.72996C3.495 7.08121 3.98374 6.55371 4.58375 6.55371H11.4162V6.55371ZM11.4162 6.30371H4.58375C3.8475 6.30371 3.245 6.94621 3.245 7.72996C3.245 8.51496 3.8475 9.15621 4.58375 9.15621H11.415C12.1512 9.15621 12.7537 8.51371 12.7537 7.72996C12.755 6.94621 12.1525 6.30371 11.4162 6.30371Z" fill="#291B16"/>
<path d="M8 11.9087C6.0425 11.9087 3.935 10.3912 3.935 7.05745C3.935 5.50995 4.38 4.0837 5.1875 3.0412C5.9425 2.0662 6.96875 1.50745 8 1.50745C9.03125 1.50745 10.0562 2.0662 10.8125 3.0412C11.62 4.0837 12.065 5.50995 12.065 7.05745C12.065 8.5687 11.6262 9.8312 10.7975 10.7087C10.065 11.4824 9.07125 11.9087 8 11.9087V11.9087Z" fill="url(#paint1_linear)"/>
<path d="M8 1.63373C8.9925 1.63373 9.98125 2.17498 10.7137 3.11873C11.505 4.13873 11.94 5.53748 11.94 7.05873C11.94 8.53748 11.5137 9.77123 10.7062 10.6237C9.9975 11.3725 9.03625 11.785 8 11.785C6.96375 11.785 6.0025 11.3725 5.29375 10.6237C4.48625 9.77123 4.06 8.53748 4.06 7.05873C4.06 5.53873 4.49625 4.13998 5.28625 3.11873C6.01875 2.17498 7.0075 1.63373 8 1.63373ZM8 1.38373C5.825 1.38373 3.81 3.70998 3.81 7.05748C3.81 10.3875 5.88625 12.0337 8 12.0337C10.1137 12.0337 12.19 10.3875 12.19 7.05748C12.19 3.70998 10.175 1.38373 8 1.38373V1.38373Z" fill="#4A2F27"/>
<path d="M4.99877 6.34124C4.99877 6.34124 5.01502 6.31749 5.04627 6.27749C5.05502 6.26749 5.06127 6.25749 5.07377 6.24499C5.08752 6.23124 5.10252 6.21749 5.12002 6.20249C5.13752 6.18749 5.15502 6.17249 5.17377 6.15499C5.19252 6.13874 5.21252 6.12624 5.23377 6.11124C5.25502 6.09749 5.27627 6.08124 5.30002 6.06749C5.32377 6.05499 5.35002 6.04124 5.37502 6.02749C5.40127 6.01249 5.42877 6.00124 5.45752 5.98999C5.48627 5.97874 5.51627 5.96749 5.54627 5.95624C5.60752 5.93874 5.67127 5.91999 5.73877 5.91124C5.80502 5.89874 5.87377 5.89749 5.94252 5.89374C6.01127 5.89749 6.07877 5.89749 6.14627 5.91124C6.21252 5.91999 6.27752 5.93874 6.33877 5.95624C6.36877 5.96624 6.39877 5.97749 6.42752 5.98999C6.45627 6.00124 6.48377 6.01249 6.51002 6.02749C6.53627 6.04124 6.56127 6.05499 6.58502 6.06749C6.60877 6.08124 6.63002 6.09749 6.65127 6.11124C6.67252 6.12624 6.69252 6.13874 6.71002 6.15374C6.72752 6.16874 6.74377 6.18374 6.76002 6.19749C6.77502 6.21124 6.79002 6.22374 6.80252 6.23624C6.81502 6.24874 6.82502 6.26249 6.83502 6.27249C6.87377 6.31749 6.89252 6.34374 6.89252 6.34374C6.95627 6.43124 6.93627 6.55499 6.84752 6.61749C6.79377 6.65624 6.72752 6.66374 6.66877 6.64374L6.63252 6.63124C6.63252 6.63124 6.60877 6.62249 6.57127 6.60624C6.56127 6.60249 6.55252 6.59749 6.54002 6.59249C6.52752 6.58874 6.51627 6.58374 6.50252 6.57874C6.47627 6.56874 6.44752 6.55749 6.41502 6.54749C6.39877 6.54249 6.38252 6.53624 6.36502 6.53124C6.34752 6.52749 6.33002 6.52249 6.31127 6.51749L6.28377 6.50999C6.27377 6.50874 6.26502 6.50624 6.25502 6.50499C6.23502 6.50124 6.21627 6.49624 6.19627 6.49249C6.15502 6.48749 6.11377 6.47874 6.07127 6.47749C6.02877 6.47249 5.98502 6.47374 5.94252 6.47124C5.89877 6.47374 5.85502 6.47249 5.81377 6.47749C5.77127 6.47999 5.73002 6.48874 5.68877 6.49249C5.66877 6.49624 5.65002 6.50124 5.63002 6.50499C5.62002 6.50624 5.61002 6.50874 5.60127 6.50999L5.57377 6.51749C5.55502 6.52249 5.53752 6.52624 5.52002 6.53124C5.50252 6.53624 5.48627 6.54249 5.47002 6.54749C5.45377 6.55249 5.43877 6.55749 5.42377 6.56124C5.41127 6.56624 5.39877 6.56999 5.38752 6.57374L5.35377 6.58499C5.34127 6.58999 5.32877 6.59749 5.31752 6.60249C5.27252 6.62499 5.24627 6.63624 5.24627 6.63624C5.14252 6.67874 5.02502 6.62999 4.98252 6.52749C4.95252 6.46749 4.96252 6.39499 4.99877 6.34124V6.34124Z" fill="#1A1717"/>
<path d="M5.94505 7.98875C6.28539 7.98875 6.5613 7.70333 6.5613 7.35125C6.5613 6.99916 6.28539 6.71375 5.94505 6.71375C5.6047 6.71375 5.3288 6.99916 5.3288 7.35125C5.3288 7.70333 5.6047 7.98875 5.94505 7.98875Z" fill="#1A1717"/>
<path d="M10.7563 6.64121C10.7563 6.64121 10.7288 6.62996 10.685 6.60746C10.6738 6.60246 10.6613 6.59496 10.6488 6.58996C10.6375 6.58746 10.6263 6.58246 10.615 6.57871C10.6038 6.57496 10.5913 6.56996 10.5788 6.56621C10.5638 6.56121 10.5488 6.55746 10.5325 6.55246C10.5163 6.54746 10.5 6.54121 10.4825 6.53621C10.465 6.53121 10.4475 6.52746 10.4288 6.52246L10.4013 6.51496C10.3913 6.51371 10.3825 6.51121 10.3725 6.50996C10.3525 6.50621 10.3338 6.50121 10.3138 6.49746C10.2725 6.49246 10.2313 6.48371 10.1888 6.48246C10.1463 6.47746 10.1025 6.47871 10.06 6.47621C10.0163 6.47871 9.97254 6.47746 9.93129 6.48246C9.88879 6.48496 9.84754 6.49371 9.80629 6.49746C9.78629 6.50121 9.76754 6.50621 9.74754 6.50996C9.73754 6.51121 9.72754 6.51371 9.71879 6.51496L9.69129 6.52246C9.67254 6.52746 9.65504 6.53246 9.63754 6.53621C9.62004 6.54121 9.60379 6.54746 9.58754 6.55246C9.55504 6.56121 9.52629 6.57246 9.50004 6.58371C9.48629 6.58871 9.47504 6.59371 9.46254 6.59746C9.45129 6.60246 9.44129 6.60746 9.43129 6.61121C9.39379 6.62746 9.37004 6.63621 9.37004 6.63621L9.33504 6.64871C9.23254 6.68496 9.12004 6.62996 9.08504 6.52746C9.06379 6.46496 9.07504 6.39871 9.11129 6.34746C9.11129 6.34746 9.13129 6.31996 9.16879 6.27621C9.17879 6.26496 9.18879 6.25246 9.20129 6.23996C9.21379 6.22746 9.22879 6.21496 9.24379 6.20121C9.25879 6.18746 9.27629 6.17246 9.29379 6.15746C9.31129 6.14246 9.33254 6.12996 9.35254 6.11496C9.37379 6.09996 9.39504 6.08496 9.41879 6.07121C9.44254 6.05871 9.46879 6.04496 9.49379 6.03121C9.52004 6.01621 9.54754 6.00496 9.57629 5.99371C9.60504 5.98246 9.63379 5.97121 9.66504 5.95996C9.72629 5.94246 9.79004 5.92371 9.85754 5.91496C9.92379 5.90246 9.99254 5.90121 10.0613 5.89746C10.13 5.90121 10.1975 5.90121 10.265 5.91496C10.3313 5.92246 10.3963 5.94246 10.4575 5.95996C10.4875 5.96996 10.5175 5.98121 10.5463 5.99371C10.575 6.00496 10.6025 6.01621 10.6288 6.03121C10.655 6.04496 10.68 6.05871 10.7038 6.07121C10.7275 6.08496 10.7488 6.10121 10.77 6.11496C10.7913 6.12996 10.81 6.14246 10.83 6.15871C10.8488 6.17496 10.8675 6.19121 10.8838 6.20621C10.9 6.22121 10.9163 6.23496 10.93 6.24871C10.9413 6.26121 10.9488 6.27121 10.9575 6.28121C10.9888 6.31996 11.005 6.34496 11.005 6.34496C11.0675 6.43746 11.0438 6.56246 10.9513 6.62621C10.89 6.66121 10.8175 6.66621 10.7563 6.64121V6.64121Z" fill="#1A1717"/>
<path d="M10.055 7.98875C10.3954 7.98875 10.6713 7.70333 10.6713 7.35125C10.6713 6.99916 10.3954 6.71375 10.055 6.71375C9.71469 6.71375 9.43878 6.99916 9.43878 7.35125C9.43878 7.70333 9.71469 7.98875 10.055 7.98875Z" fill="#1A1717"/>
<path d="M8.48248 8.5075C8.46873 8.5025 8.45623 8.49875 8.44248 8.4975H7.55873C7.54498 8.49875 7.53123 8.5025 7.51873 8.5075C7.43873 8.54 7.39498 8.6225 7.43248 8.71125C7.46998 8.8 7.64623 9.0475 8.00123 9.0475C8.35623 9.0475 8.53248 8.79875 8.56998 8.71125C8.60623 8.6225 8.56248 8.54 8.48248 8.5075Z" fill="#261C17"/>
<path d="M9.05249 9.51746C8.65374 9.75371 7.34874 9.75371 6.95124 9.51746C6.72249 9.38121 6.48874 9.58996 6.58374 9.79746C6.67749 10.0012 7.38999 10.475 8.00499 10.475C8.61999 10.475 9.32374 10.0012 9.41749 9.79746C9.51124 9.58996 9.28124 9.38121 9.05249 9.51746Z" fill="#795548"/>
<path d="M8.00252 0.503723H7.99752C2.31877 0.533723 3.48127 7.02122 3.48127 7.02122C3.48127 7.02122 4.11877 8.14497 4.11877 8.12247C4.09877 7.21622 4.46127 5.61122 4.71877 4.92872C4.78163 4.76205 4.90108 4.62277 5.05623 4.53525C5.21138 4.44774 5.39237 4.41755 5.56752 4.44997C6.12502 4.54997 7.01127 4.67497 7.99002 4.67497H8.01003C8.98878 4.67497 9.87502 4.54997 10.4313 4.44872C10.7938 4.38247 11.1513 4.58372 11.28 4.92747C11.5375 5.61122 11.9 7.21497 11.88 8.12122C11.88 8.14372 12.5175 7.01997 12.5175 7.01997C12.5175 7.01997 13.6813 0.533723 8.00252 0.503723V0.503723Z" fill="url(#paint2_radial)"/>
<path d="M8.00252 0.503723H7.99752C2.31877 0.533723 3.48127 7.02122 3.48127 7.02122C3.48127 7.02122 4.10627 8.12247 4.11877 8.12247C4.11502 7.93747 4.12752 7.72247 4.15127 7.49372C4.13627 7.45747 3.84377 6.89997 3.84127 6.89497C3.81127 6.69497 3.72502 6.02247 3.77252 5.19997C3.82377 4.31997 4.04377 3.07997 4.80002 2.17247C5.50877 1.32247 6.58377 0.887473 7.99502 0.878723H8.00002C9.41502 0.886223 10.4913 1.32122 11.2 2.17247C12.5513 3.79247 12.2225 6.46372 12.1588 6.89622C12.1563 6.90122 11.8513 7.46872 11.8475 7.47747C11.8725 7.71372 11.8863 7.93372 11.8813 8.12372C11.8925 8.12372 12.5188 7.02247 12.5188 7.02247C12.5188 7.02247 13.6813 0.533723 8.00252 0.503723V0.503723Z" fill="#1F1D1B"/>
<path d="M8 11.7913C10.0711 11.7913 11.75 10.588 11.75 9.10376C11.75 7.61949 10.0711 6.41626 8 6.41626C5.92893 6.41626 4.25 7.61949 4.25 9.10376C4.25 10.588 5.92893 11.7913 8 11.7913Z" fill="url(#paint3_radial)"/>
<path d="M2.30624 14.0463C2.30749 14.065 2.30749 14.0838 2.30749 14.1025C2.30749 14.615 2.05999 15.03 1.75624 15.03C1.45124 15.03 1.20499 14.615 1.20499 14.1025C1.20499 14.0838 1.20624 14.065 1.20624 14.0463C0.904985 14.265 0.703735 14.655 0.703735 15.1025V15.1838C0.703735 15.3588 0.823735 15.5013 0.972485 15.5013H2.53999C2.68874 15.5013 2.80874 15.36 2.80874 15.1838V15.1025C2.80874 14.655 2.60749 14.2638 2.30624 14.0463Z" fill="#26A69A"/>
<path d="M1.75622 15.03C2.88122 15.03 2.30747 14.615 2.30747 14.1025C2.30747 14.0838 2.30622 14.065 2.30622 14.0463C2.14622 13.93 1.95747 13.8613 1.75622 13.8613C1.55372 13.8613 1.36622 13.93 1.20622 14.0463C1.20497 14.065 1.20497 14.0838 1.20497 14.1025C1.20372 14.615 0.624972 15.03 1.75622 15.03V15.03Z" fill="#00796B"/>
<path d="M3.49749 13.35C3.48374 12.995 3.21874 12.2625 2.87249 12.2012C2.86224 12.1999 2.85238 12.1964 2.84356 12.191C2.83473 12.1857 2.82713 12.1785 2.82124 12.17C2.76624 12.0862 2.58999 11.8612 2.26749 12.0387C2.14749 12.105 2.10499 12.1637 2.12499 12.2487C2.10999 12.2662 2.08249 12.2875 2.04249 12.2712C1.91249 12.1262 1.75249 12.0962 1.56624 12.2412C1.35499 12.4062 1.35499 12.5237 1.39374 12.64L1.39249 12.6412C1.39249 12.6412 1.38249 12.7225 1.32249 12.715C1.25874 12.66 1.18124 12.66 1.06124 12.7475C0.736242 12.9825 0.869992 13.205 0.924992 13.3362C0.917492 13.3487 0.904992 13.3575 0.884992 13.3562C0.842492 13.3337 0.788742 13.3337 0.716242 13.375C0.543742 13.4737 0.568742 13.7987 0.617492 13.905C0.671242 14.0212 0.967492 14.4287 1.06999 14.5437C1.09374 14.57 1.12249 14.5887 1.15374 14.6012C1.15033 14.6002 1.14699 14.5989 1.14374 14.5975C1.23249 14.6525 1.38749 14.7187 1.53874 14.625C1.53874 14.625 1.63499 14.555 1.64374 14.4812C1.80749 14.5725 2.03374 14.4025 2.03374 14.4025C2.13999 14.3212 2.16749 14.23 2.16374 14.1512C2.21749 14.1837 2.27624 14.1962 2.33249 14.1975C2.50249 14.2025 2.65874 14.1025 2.65874 14.1025C2.90249 13.9637 2.95124 13.8187 2.94999 13.7225C3.07624 13.8012 3.23249 13.7425 3.23249 13.7425C3.50624 13.6187 3.49749 13.35 3.49749 13.35Z" fill="#70534A"/>
<path d="M3.57749 13.3475C3.56249 12.9662 3.28249 12.1937 2.88874 12.1262C2.73249 11.8875 2.48624 11.8287 2.22999 11.9687C2.15249 12.0112 2.06749 12.07 2.04624 12.1625C1.88874 12.0287 1.70374 12.0325 1.51874 12.1775C1.29999 12.3475 1.27874 12.4912 1.30374 12.6112C1.17874 12.5637 1.05874 12.65 1.01499 12.6825C0.719987 12.895 0.754987 13.1175 0.807487 13.2612C0.766237 13.265 0.722487 13.2787 0.677487 13.305C0.454987 13.4312 0.484987 13.8062 0.546237 13.9375C0.604987 14.0637 0.903737 14.4762 1.01124 14.595C1.03499 14.6212 1.06499 14.6437 1.09874 14.6625C1.09999 14.6625 1.09999 14.6637 1.10124 14.6637C1.19249 14.7212 1.28499 14.75 1.37374 14.75C1.44749 14.75 1.51999 14.73 1.58624 14.6875C1.59999 14.6775 1.65249 14.6362 1.68874 14.5787C1.87624 14.6162 2.07249 14.47 2.08124 14.4625C2.16624 14.3975 2.20874 14.3262 2.22874 14.2612C2.26124 14.27 2.29499 14.2737 2.33124 14.275C2.52124 14.2787 2.69499 14.1712 2.69874 14.1687C2.89749 14.0562 2.98249 13.9337 3.01374 13.83C3.13874 13.8587 3.25499 13.8162 3.26499 13.8125C3.58374 13.6712 3.57874 13.36 3.57749 13.3475V13.3475ZM3.23999 13.5375C3.14124 13.6112 3.05249 13.6225 2.97999 13.5925C2.90874 13.5337 2.84499 13.415 2.84499 13.415C2.56374 12.8987 2.36999 12.64 2.36999 12.64C2.35124 12.6175 2.30999 12.5462 2.25124 12.51C2.17749 12.465 2.19874 12.545 2.19874 12.545C2.52624 13.055 2.72499 13.4625 2.72499 13.4625C2.80999 13.6175 2.79499 13.7262 2.76999 13.7875C2.74249 13.8612 2.57874 13.9662 2.57874 13.9662C2.24874 14.1637 2.09624 13.9 2.09624 13.9C2.09624 13.9 1.90249 13.6575 1.57874 13.0525C1.57874 13.0525 1.52749 12.9687 1.49749 13.0262C1.49749 13.0262 1.51499 13.1287 1.56249 13.2262C1.56249 13.2262 1.70999 13.5762 1.99499 13.98C1.99749 13.9862 1.99874 13.9925 2.00124 13.9987C2.00624 14.0125 2.01124 14.0275 2.01499 14.0412C2.01624 14.0462 2.01624 14.0512 2.01749 14.0575C2.01999 14.0712 2.02249 14.085 2.02249 14.0987C2.02249 14.1037 2.02124 14.1075 2.02124 14.1112C2.02124 14.125 2.01999 14.1375 2.01749 14.15L2.01374 14.1612C2.01124 14.1737 2.00749 14.1862 2.00249 14.1975C2.00124 14.2012 1.99874 14.205 1.99749 14.2087C1.99249 14.22 1.98749 14.23 1.98124 14.24C1.97874 14.2437 1.97499 14.2475 1.97249 14.2525C1.96624 14.2612 1.96124 14.2687 1.95374 14.2762C1.94874 14.2812 1.94249 14.2862 1.93749 14.2912C1.93249 14.2962 1.92749 14.3012 1.92124 14.3062C1.88747 14.3324 1.84879 14.3515 1.80749 14.3625C1.79999 14.365 1.79249 14.365 1.78499 14.3662C1.76749 14.3687 1.75124 14.3712 1.73499 14.3712C1.72749 14.3712 1.71874 14.37 1.71124 14.3687C1.69624 14.3662 1.68124 14.3637 1.66749 14.3587C1.66124 14.3562 1.65374 14.355 1.64749 14.3512C1.63249 14.345 1.61749 14.3362 1.60249 14.3275C1.59874 14.325 1.59499 14.3237 1.59124 14.3212C1.51749 14.2487 1.34749 14.0537 1.09999 13.6075C1.09999 13.6075 1.05124 13.495 1.02749 13.5337C1.02749 13.5337 1.00249 13.5637 1.07124 13.7362C1.07124 13.7362 1.16999 13.9837 1.41999 14.315C1.51124 14.4412 1.50249 14.5025 1.46624 14.5412C1.46374 14.5437 1.45999 14.5462 1.45749 14.55C1.43999 14.5662 1.41874 14.5787 1.39749 14.59C1.32749 14.5975 1.25999 14.5737 1.20499 14.5437C1.19806 14.5373 1.19001 14.5322 1.18124 14.5287C1.15749 14.5187 1.13874 14.5062 1.12624 14.4912C1.01999 14.3725 0.734987 13.9762 0.687487 13.8725C0.646237 13.7825 0.634987 13.5125 0.752487 13.445C0.812487 13.41 0.836237 13.4225 0.843737 13.4275C0.853737 13.4337 0.866237 13.4362 0.877487 13.4375C0.923737 13.44 0.966237 13.4187 0.989987 13.3787C1.00249 13.3575 1.00499 13.3312 0.994987 13.3075L0.979987 13.2737C0.922487 13.1425 0.857487 12.9937 1.10499 12.815C1.21624 12.7337 1.24874 12.7612 1.26749 12.7787C1.27999 12.7887 1.29499 12.7962 1.30999 12.7975C1.39624 12.8075 1.45124 12.7425 1.46624 12.67C1.47186 12.6534 1.47186 12.6353 1.46624 12.6187C1.44374 12.5487 1.41499 12.4612 1.61249 12.3075C1.75249 12.1987 1.86999 12.205 1.97999 12.3275C1.98874 12.3362 1.99874 12.3437 2.00999 12.3487C2.07374 12.3737 2.13749 12.3575 2.18374 12.3037C2.19999 12.2837 2.20624 12.2587 2.19999 12.2337C2.19374 12.21 2.18624 12.1762 2.30249 12.1125C2.48749 12.0112 2.63874 12.0462 2.75124 12.2175C2.77374 12.2525 2.81124 12.275 2.85499 12.2837C2.86874 12.2862 2.88249 12.2912 2.89624 12.2962C3.03749 12.5212 3.18624 12.8037 3.25124 12.9275C3.37374 13.1525 3.45374 13.3762 3.23999 13.5375V13.5375Z" fill="#4A2F27"/>
<path d="M12.5038 14.1C12.5175 13.745 12.7825 13.0125 13.1288 12.9512C13.15 12.9475 13.1688 12.9375 13.18 12.92C13.235 12.8362 13.4113 12.6112 13.7338 12.7887C13.8538 12.855 13.8963 12.9137 13.8763 12.9987C13.8913 13.0162 13.9188 13.0375 13.9588 13.0212C14.0888 12.8762 14.2488 12.8462 14.435 12.9912C14.6463 13.1562 14.6463 13.2737 14.6075 13.39L14.6088 13.3912C14.6088 13.3912 14.6188 13.4725 14.6788 13.465C14.7425 13.41 14.82 13.41 14.94 13.4975C15.265 13.7325 15.1313 13.955 15.0763 14.0862C15.0838 14.0987 15.0963 14.1075 15.1163 14.1062C15.1588 14.0837 15.2125 14.0837 15.285 14.125C15.4575 14.2237 15.4325 14.5487 15.3838 14.655C15.33 14.7712 15.0338 15.1787 14.9313 15.2937C14.9075 15.32 14.8788 15.3387 14.8475 15.3512C14.8513 15.35 14.855 15.3487 14.8575 15.3475C14.7688 15.4025 14.6138 15.4687 14.4625 15.375C14.4625 15.375 14.3663 15.305 14.3575 15.2312C14.1938 15.3225 13.9675 15.1525 13.9675 15.1525C13.8613 15.0712 13.8338 14.98 13.8375 14.9012C13.7838 14.9337 13.725 14.9462 13.6688 14.9475C13.4988 14.9525 13.3425 14.8525 13.3425 14.8525C13.0988 14.7137 13.05 14.5687 13.0513 14.4725C12.925 14.5512 12.7688 14.4925 12.7688 14.4925C12.495 14.3687 12.5038 14.1 12.5038 14.1V14.1Z" fill="#70534A"/>
<path d="M12.4238 14.0975C12.4388 13.7162 12.7188 12.9437 13.1125 12.8762C13.2688 12.6375 13.515 12.5787 13.7713 12.7187C13.8488 12.7612 13.9338 12.82 13.955 12.9125C14.1125 12.7787 14.2975 12.7825 14.4825 12.9275C14.7013 13.0975 14.7225 13.2412 14.6975 13.3612C14.8225 13.3137 14.9425 13.4 14.9863 13.4325C15.2813 13.645 15.2463 13.8675 15.1938 14.0112C15.235 14.015 15.2788 14.0287 15.3238 14.055C15.5463 14.1812 15.5163 14.5562 15.455 14.6875C15.3963 14.8137 15.0975 15.2262 14.99 15.345C14.9663 15.3712 14.9363 15.3937 14.9025 15.4125C14.9013 15.4125 14.9013 15.4137 14.9 15.4137C14.8088 15.4712 14.7163 15.5 14.6275 15.5C14.5538 15.5 14.4813 15.48 14.415 15.4375C14.4013 15.4275 14.3488 15.3862 14.3125 15.3287C14.125 15.3662 13.9288 15.22 13.92 15.2125C13.835 15.1475 13.7925 15.0762 13.7725 15.0112C13.74 15.02 13.7063 15.0237 13.67 15.025C13.48 15.0287 13.3063 14.9212 13.3025 14.9187C13.1038 14.8062 13.0188 14.6837 12.9875 14.58C12.8625 14.6087 12.7463 14.5662 12.7363 14.5625C12.4175 14.4212 12.4238 14.11 12.4238 14.0975ZM12.7613 14.2875C12.86 14.3612 12.9488 14.3725 13.0213 14.3425C13.0925 14.2837 13.1563 14.165 13.1563 14.165C13.4375 13.6487 13.6313 13.39 13.6313 13.39C13.65 13.3675 13.6913 13.2962 13.75 13.26C13.8238 13.215 13.8025 13.295 13.8025 13.295C13.475 13.805 13.2763 14.2125 13.2763 14.2125C13.1913 14.3675 13.2063 14.4762 13.2313 14.5375C13.2588 14.6112 13.4225 14.7162 13.4225 14.7162C13.7525 14.9137 13.905 14.65 13.905 14.65C13.905 14.65 14.0988 14.4075 14.4225 13.8025C14.4225 13.8025 14.4738 13.7187 14.5038 13.7762C14.5038 13.7762 14.4863 13.8787 14.4388 13.9762C14.4388 13.9762 14.2913 14.3262 14.0063 14.73C14.0038 14.7362 14.0025 14.7425 14 14.7487C13.995 14.7625 13.99 14.7775 13.9863 14.7912C13.985 14.7962 13.985 14.8012 13.9838 14.8075C13.9813 14.8212 13.9788 14.835 13.9788 14.8487C13.9788 14.8537 13.98 14.8575 13.98 14.8612C13.98 14.875 13.9813 14.8875 13.9838 14.9L13.9875 14.9112C13.99 14.9237 13.9938 14.9362 13.9988 14.9475C14 14.9512 14.0025 14.955 14.0038 14.9587C14.0088 14.97 14.0138 14.98 14.02 14.99C14.0225 14.9937 14.0263 14.9975 14.0288 15.0025C14.035 15.0112 14.04 15.0187 14.0475 15.0262C14.0525 15.0312 14.0588 15.0362 14.0638 15.0412C14.0688 15.0462 14.0738 15.0512 14.08 15.0562C14.1138 15.0824 14.1525 15.1015 14.1938 15.1125C14.2013 15.115 14.2088 15.115 14.2163 15.1162C14.2338 15.1187 14.25 15.1212 14.2663 15.1212C14.2738 15.1212 14.2825 15.12 14.29 15.1187C14.305 15.1162 14.32 15.1137 14.3338 15.1087C14.34 15.1062 14.3475 15.105 14.3538 15.1012C14.3688 15.095 14.3838 15.0862 14.3988 15.0775C14.4025 15.075 14.4063 15.0737 14.41 15.0712C14.4838 14.9987 14.6538 14.8037 14.9013 14.3575C14.9013 14.3575 14.95 14.245 14.9738 14.2837C14.9738 14.2837 14.9988 14.3137 14.93 14.4862C14.93 14.4862 14.8313 14.7337 14.5813 15.065C14.49 15.1912 14.4988 15.2525 14.535 15.2912C14.5375 15.2937 14.5413 15.2962 14.5438 15.3C14.5613 15.3162 14.5825 15.3287 14.6038 15.34C14.6738 15.3475 14.7413 15.3237 14.7963 15.2937C14.8025 15.2875 14.8113 15.2825 14.82 15.2787C14.8438 15.2687 14.8625 15.2562 14.875 15.2412C14.9813 15.1225 15.2663 14.7262 15.3138 14.6225C15.355 14.5325 15.3663 14.2625 15.2488 14.195C15.1888 14.16 15.165 14.1725 15.1575 14.1775C15.1471 14.1832 15.1356 14.1866 15.1238 14.1875C15.1014 14.1891 15.079 14.1845 15.0592 14.1741C15.0393 14.1637 15.0227 14.148 15.0113 14.1287C15.0049 14.1181 15.0012 14.1061 15.0003 14.0937C14.9994 14.0813 15.0015 14.0689 15.0063 14.0575L15.0213 14.0237C15.0788 13.8925 15.1438 13.7437 14.8963 13.565C14.785 13.4837 14.7525 13.5112 14.7338 13.5287C14.7213 13.5387 14.7063 13.5462 14.6913 13.5475C14.605 13.5575 14.55 13.4925 14.535 13.42C14.5294 13.4034 14.5294 13.3853 14.535 13.3687C14.5575 13.2987 14.5863 13.2112 14.3888 13.0575C14.2488 12.9487 14.1313 12.955 14.0213 13.0775C14.0125 13.0862 14.0025 13.0937 13.9913 13.0987C13.9275 13.1237 13.8638 13.1075 13.8175 13.0537C13.8095 13.0442 13.8038 13.0328 13.801 13.0207C13.7982 13.0085 13.7983 12.9958 13.8013 12.9837C13.8075 12.96 13.815 12.9262 13.6988 12.8625C13.5138 12.7612 13.3625 12.7962 13.25 12.9675C13.2275 13.0025 13.19 13.025 13.1463 13.0337C13.1325 13.0362 13.1188 13.0412 13.105 13.0462C12.9638 13.2712 12.815 13.5537 12.75 13.6775C12.6275 13.9025 12.5488 14.1262 12.7613 14.2875V14.2875Z" fill="#4A2F27"/>
<path d="M3.0625 17.8125C2.615 17.8125 2.25 17.4475 2.25 17V10.1462C2.25 9.69874 2.615 9.33374 3.0625 9.33374H12.9375C13.385 9.33374 13.75 9.69874 13.75 10.1462V17C13.75 17.4475 13.385 17.8125 12.9375 17.8125H3.0625Z" fill="url(#paint4_linear)"/>
<path d="M12.9375 9.52124C13.2825 9.52124 13.5625 9.80124 13.5625 10.1462V17C13.5625 17.345 13.2825 17.625 12.9375 17.625H3.0625C2.7175 17.625 2.4375 17.345 2.4375 17V10.1462C2.4375 9.80124 2.7175 9.52124 3.0625 9.52124H12.9375ZM12.9375 9.14624H3.0625C2.51 9.14624 2.0625 9.59374 2.0625 10.1462V17C2.0625 17.5525 2.51 18 3.0625 18H12.9375C13.49 18 13.9375 17.5525 13.9375 17V10.1462C13.9375 9.59374 13.49 9.14624 12.9375 9.14624Z" fill="#00B3C1"/>
<path d="M9.61373 14.695C9.44248 14.1125 9.37123 13.14 9.34123 12.4613C9.32248 12.0325 8.96748 11.695 8.53498 11.695H7.46623C7.03373 11.695 6.67873 12.0325 6.65998 12.4613C6.62998 13.1413 6.55873 14.1125 6.38748 14.695C6.10373 15.66 5.66123 16.4438 6.42998 16.4438H9.57123C10.34 16.4438 9.89623 15.66 9.61373 14.695V14.695Z" fill="url(#paint5_linear)"/>
</g>
<defs>
<linearGradient id="paint0_linear" x1="8" y1="1.24888" x2="8" y2="10.8213" gradientUnits="userSpaceOnUse">
<stop offset="0.003" stop-color="#424242"/>
<stop offset="0.271" stop-color="#353535"/>
<stop offset="0.764" stop-color="#131313"/>
<stop offset="1"/>
</linearGradient>
<linearGradient id="paint1_linear" x1="8" y1="11.8238" x2="8" y2="1.60307" gradientUnits="userSpaceOnUse">
<stop stop-color="#5C4037"/>
<stop offset="0.158" stop-color="#63463D"/>
<stop offset="0.533" stop-color="#6D5047"/>
<stop offset="1" stop-color="#70534A"/>
</linearGradient>
<radialGradient id="paint2_radial" cx="0" cy="0" r="1" gradientUnits="userSpaceOnUse" gradientTransform="translate(8.03252 0.534223) scale(6.10625)">
<stop stop-color="#444140"/>
<stop offset="1" stop-color="#232020"/>
</radialGradient>
<radialGradient id="paint3_radial" cx="0" cy="0" r="1" gradientUnits="userSpaceOnUse" gradientTransform="translate(7.99995 9.6452) rotate(-90) scale(3.22527 3.44668)">
<stop stop-color="white" stop-opacity="0.9"/>
<stop offset="0.123" stop-color="white" stop-opacity="0.8"/>
<stop offset="0.383" stop-color="white" stop-opacity="0.65"/>
<stop offset="0.757" stop-color="white" stop-opacity="0.25"/>
<stop offset="1" stop-color="white" stop-opacity="0"/>
</radialGradient>
<linearGradient id="paint4_linear" x1="8" y1="9.31574" x2="8" y2="17.8675" gradientUnits="userSpaceOnUse">
<stop stop-color="#4DD0E1"/>
<stop offset="1" stop-color="#00BCD4"/>
</linearGradient>
<linearGradient id="paint5_linear" x1="7.99998" y1="11.5745" x2="7.99998" y2="16.4838" gradientUnits="userSpaceOnUse">
<stop stop-color="#00BCD4"/>
<stop offset="1" stop-color="#0097A7"/>
</linearGradient>
<clipPath id="clip0">
<rect width="16" height="16" fill="white"/>
</clipPath>
</defs>
</svg>
