<svg width="16" height="16" viewBox="0 0 16 16" fill="none" xmlns="http://www.w3.org/2000/svg">
<path d="M8 5.91724C6.85312 5.91724 5.91719 6.85317 5.91719 8.00005C5.91719 9.14692 6.85312 10.0829 8 10.0829C9.14687 10.0829 10.0828 9.14692 10.0828 8.00005C10.0828 6.85317 9.14687 5.91724 8 5.91724ZM14.2469 8.00005C14.2469 7.13755 14.2547 6.28286 14.2062 5.42192C14.1578 4.42192 13.9297 3.53442 13.1984 2.80317C12.4656 2.07036 11.5797 1.8438 10.5797 1.79536C9.71719 1.74692 8.8625 1.75474 8.00156 1.75474C7.13906 1.75474 6.28437 1.74692 5.42344 1.79536C4.42344 1.8438 3.53594 2.07192 2.80469 2.80317C2.07187 3.53599 1.84531 4.42192 1.79687 5.42192C1.74844 6.28442 1.75625 7.13911 1.75625 8.00005C1.75625 8.86099 1.74844 9.71724 1.79687 10.5782C1.84531 11.5782 2.07344 12.4657 2.80469 13.1969C3.5375 13.9297 4.42344 14.1563 5.42344 14.2047C6.28594 14.2532 7.14062 14.2454 8.00156 14.2454C8.86406 14.2454 9.71875 14.2532 10.5797 14.2047C11.5797 14.1563 12.4672 13.9282 13.1984 13.1969C13.9312 12.4641 14.1578 11.5782 14.2062 10.5782C14.2562 9.71724 14.2469 8.86255 14.2469 8.00005V8.00005ZM8 11.2047C6.22656 11.2047 4.79531 9.77349 4.79531 8.00005C4.79531 6.22661 6.22656 4.79536 8 4.79536C9.77344 4.79536 11.2047 6.22661 11.2047 8.00005C11.2047 9.77349 9.77344 11.2047 8 11.2047ZM11.3359 5.41255C10.9219 5.41255 10.5875 5.07817 10.5875 4.66411C10.5875 4.25005 10.9219 3.91567 11.3359 3.91567C11.75 3.91567 12.0844 4.25005 12.0844 4.66411C12.0845 4.76243 12.0652 4.85981 12.0277 4.95067C11.9901 5.04153 11.935 5.12409 11.8654 5.19361C11.7959 5.26314 11.7134 5.31826 11.6225 5.35583C11.5316 5.3934 11.4343 5.41267 11.3359 5.41255V5.41255Z" fill="#83BBE6"/>
</svg>
