<svg width="16" height="16" viewBox="0 0 16 16" fill="none" xmlns="http://www.w3.org/2000/svg">
<path d="M13.105 1.99999H2.895C2.66236 1.99859 2.43842 2.08833 2.27114 2.25001C2.10386 2.41169 2.00653 2.63243 2 2.86499V13.1C2.00525 13.333 2.10218 13.5545 2.26974 13.7164C2.43731 13.8784 2.66198 13.9677 2.895 13.965H13.105C13.338 13.9677 13.5627 13.8784 13.7303 13.7164C13.8978 13.5545 13.9947 13.333 14 13.1V2.86499C13.9935 2.63243 13.8961 2.41169 13.7289 2.25001C13.5616 2.08833 13.3376 1.99859 13.105 1.99999ZM5.555 12.205H3.795V6.49999H5.555V12.205ZM4.695 5.70499C4.42478 5.70506 4.16524 5.59946 3.97184 5.41073C3.77845 5.22201 3.66653 4.96513 3.66 4.69499C3.65511 4.55775 3.67853 4.42098 3.72881 4.29319C3.77909 4.16541 3.85516 4.04935 3.95226 3.95224C4.04936 3.85514 4.16542 3.77908 4.29321 3.7288C4.42099 3.67852 4.55776 3.65509 4.695 3.65999C4.95642 3.67819 5.20121 3.79488 5.37995 3.98651C5.5587 4.17813 5.65811 4.43043 5.65811 4.69249C5.65811 4.95454 5.5587 5.20684 5.37995 5.39847C5.20121 5.59009 4.95642 5.70678 4.695 5.72499V5.70499ZM12.24 12.17H10.5V9.37999C10.5 8.71499 10.5 7.84999 9.57 7.84999C8.64 7.84999 8.5 8.57999 8.5 9.31499V12.14H6.72V6.49999H8.38V7.24999H8.415C8.58514 6.9545 8.83324 6.71147 9.13217 6.54745C9.4311 6.38344 9.76937 6.30475 10.11 6.31999C11.905 6.31999 12.24 7.51999 12.24 9.04499V12.17Z" fill="white"/>
</svg>
