<svg width="16" height="16" viewBox="0 0 16 16" fill="none" xmlns="http://www.w3.org/2000/svg">
<path d="M13.3333 2H2.66667C2.48986 2 2.32029 2.07024 2.19526 2.19526C2.07024 2.32029 2 2.48986 2 2.66667V13.3333C2 13.5101 2.07024 13.6797 2.19526 13.8047C2.32029 13.9298 2.48986 14 2.66667 14H13.3333C13.5101 14 13.6797 13.9298 13.8047 13.8047C13.9298 13.6797 14 13.5101 14 13.3333V2.66667C14 2.48986 13.9298 2.32029 13.8047 2.19526C13.6797 2.07024 13.5101 2 13.3333 2V2ZM11.9693 4.84333L11.3253 5.46C11.2981 5.48075 11.2771 5.50857 11.2647 5.54043C11.2522 5.57229 11.2488 5.60697 11.2547 5.64067V10.1747C11.2488 10.2084 11.2522 10.243 11.2647 10.2749C11.2771 10.3068 11.2981 10.3346 11.3253 10.3553L11.9533 10.9727V11.1087H8.79267V10.9727L9.444 10.3407C9.50867 10.2767 9.50867 10.2573 9.50867 10.16V6.49467L7.698 11.092H7.45267L5.34533 6.49467V9.576C5.33701 9.64003 5.34324 9.70511 5.36356 9.76641C5.38387 9.8277 5.41775 9.88362 5.46267 9.93L6.31 10.9573V11.0927H3.90733V10.9573L4.75467 9.93C4.79927 9.88363 4.83238 9.82746 4.85137 9.76598C4.87036 9.70451 4.87468 9.63945 4.864 9.576V6.01333C4.86898 5.96457 4.86241 5.91531 4.8448 5.86956C4.8272 5.82381 4.79906 5.78285 4.76267 5.75L4.00933 4.84333V4.708H6.34667L8.15333 8.67L9.74133 4.708H11.97V4.84333H11.9693Z" fill="white"/>
</svg>
