<svg width="16" height="19" viewBox="0 0 16 19" fill="none" xmlns="http://www.w3.org/2000/svg">
<g clip-path="url(#clip0)">
<path d="M15.9357 9.65714C15.7143 8.97857 14.975 8.61786 14.2929 8.83929L12.6714 9.37857L11.5893 6.16429L13.2107 5.625C13.8929 5.40357 14.25 4.66786 14.0321 3.98571C13.8107 3.30714 13.0714 2.94643 12.3893 3.16786L10.7679 3.70714L10.2071 2.02857C9.98571 1.35 9.24643 0.989286 8.56429 1.21071C7.88214 1.43214 7.525 2.16786 7.74286 2.85L8.30357 4.52857L4.96786 5.64286L4.40714 3.96429C4.18571 3.28571 3.44643 2.925 2.76429 3.14643C2.08214 3.36786 1.725 4.10357 1.94286 4.78572L2.50357 6.46429L0.885714 7C0.203571 7.22143 -0.153572 7.95714 0.0642854 8.63929C0.242857 9.15714 0.746428 9.49643 1.26429 9.51786C1.50714 9.55357 1.69286 9.46072 3.325 8.91786L4.40714 12.1321L2.78571 12.6714C2.10714 12.8929 1.74643 13.6321 1.96429 14.3107C2.14286 14.8286 2.64643 15.1679 3.16429 15.1893C3.40714 15.225 3.59286 15.1321 5.225 14.5893L5.78571 16.2679C5.99643 16.8714 6.66786 17.3036 7.42857 17.0857C8.11071 16.8643 8.46786 16.1286 8.25 15.4464L7.68929 13.7679L11.0321 12.65L11.5929 14.3286C11.8036 14.9321 12.475 15.3643 13.2357 15.1464C13.9179 14.925 14.275 14.1893 14.0571 13.5071L13.4964 11.8286L15.1179 11.2893C15.7964 11.075 16.1571 10.3357 15.9357 9.65714ZM6.86071 11.3429L5.77857 8.12143L9.11786 7.00357L10.2 10.225L6.86071 11.3429Z" fill="white" fill-opacity="0.4"/>
</g>
<defs>
<clipPath id="clip0">
<rect width="16" height="18.2857" fill="white"/>
</clipPath>
</defs>
</svg>
