<svg width="16" height="16" viewBox="0 0 16 16" fill="none" xmlns="http://www.w3.org/2000/svg">
<path d="M14.5 3.97344C14.0219 4.17969 13.5016 4.32813 12.9656 4.38594C13.522 4.05537 13.9387 3.53313 14.1375 2.91719C13.6154 3.2278 13.0434 3.44561 12.4469 3.56094C12.1976 3.29442 11.896 3.0821 11.5611 2.93721C11.2261 2.79231 10.8649 2.71795 10.5 2.71876C9.02344 2.71876 7.83594 3.91563 7.83594 5.38438C7.83594 5.59063 7.86094 5.79688 7.90156 5.99532C5.69062 5.87969 3.71875 4.82344 2.40781 3.20626C2.16894 3.61425 2.04377 4.0788 2.04531 4.55157C2.04531 5.47657 2.51562 6.29219 3.23281 6.77188C2.81016 6.75524 2.39741 6.63907 2.02812 6.43282V6.46563C2.02812 7.76094 2.94375 8.83438 4.16406 9.08126C3.93493 9.14077 3.69923 9.17122 3.4625 9.17188C3.28906 9.17188 3.125 9.15469 2.95937 9.13126C3.29687 10.1875 4.27969 10.9547 5.45 10.9797C4.53437 11.6969 3.3875 12.1188 2.14219 12.1188C1.91875 12.1188 1.7125 12.1109 1.49844 12.0859C2.67969 12.8438 4.08125 13.2813 5.59062 13.2813C10.4906 13.2813 13.1719 9.22188 13.1719 5.69844C13.1719 5.58282 13.1719 5.46719 13.1641 5.35157C13.6828 4.97188 14.1375 4.50157 14.5 3.97344Z" fill="#83BBE6"/>
</svg>
